<?xml version="1.0" encoding="utf-8"?>
<!-- Generator: Adobe Illustrator 26.5.0, SVG Export Plug-In . SVG Version: 6.00 Build 0)  -->
<svg version="1.1" id="Layer_1" xmlns="http://www.w3.org/2000/svg" xmlns:xlink="http://www.w3.org/1999/xlink" x="0px" y="0px"
	 viewBox="0 0 305.9 305.9" style="enable-background:new 0 0 305.9 305.9;" xml:space="preserve">
<style type="text/css">
	.st0{fill:#FFF4CA;}
	.st1{fill:#FFFFFF;}
	.st2{fill:#402020;}
</style>
<g transform="translate(-807.053 -1152.642)">
	<circle class="st0" cx="960" cy="1305.6" r="152.9"/>
</g>
<g>
	<path class="st1" d="M273.5,152.9c0,66.6-54,120.6-120.6,120.6c-66.6,0-120.6-54-120.6-120.6s54-120.6,120.6-120.6
		C219.5,32.4,273.5,86.4,273.5,152.9"/>
	<path class="st2" d="M79.5,114.7c-0.1-0.5-0.5-0.9-1.1-1.4c-0.6-0.4-1.3-0.9-2.2-1.4l-5.8-3.3c-0.2,0.4-0.4,0.7-0.6,1.1
		c-0.2,0.3-0.3,0.7-0.4,1c-0.1,0.3-0.2,0.7-0.2,1c0,0.3,0,0.7,0,1l-0.1,0.1l-3.4-2.7l0-0.1c0.2-0.1,0.3-0.3,0.5-0.5
		c0.2-0.2,0.4-0.5,0.6-0.8c0.2-0.3,0.4-0.6,0.6-1c0.2-0.4,0.4-0.7,0.6-1.1l1.1-2c0.2-0.4,0.4-0.7,0.6-1.1c0.2-0.4,0.4-0.7,0.6-1
		c0.2-0.3,0.3-0.6,0.4-0.9c0.1-0.3,0.2-0.5,0.2-0.7l0.1-0.1l4.1,1.5l0,0.1c-0.3,0.1-0.7,0.3-0.9,0.5c-0.3,0.2-0.5,0.5-0.7,0.7
		c-0.2,0.3-0.4,0.6-0.6,0.9c-0.2,0.3-0.4,0.7-0.6,1l5.8,3.3c0.8,0.5,1.6,0.8,2.3,1.1c0.7,0.3,1.3,0.4,1.7,0.2l0.1,0L79.5,114.7
		L79.5,114.7z"/>
	<path class="st2" d="M88.8,100.4c0-0.5-0.3-1-0.7-1.6c-0.5-0.6-1.1-1.2-1.8-1.9l-3.9-3.7c-0.7-0.7-1.3-1.2-2-1.6
		c-0.6-0.4-1.1-0.7-1.6-0.7l-0.1-0.1l4.6-4.8c0.3-0.3,0.6-0.6,0.9-0.9c0.3-0.3,0.6-0.6,0.8-0.9c0.2-0.3,0.4-0.5,0.6-0.8
		c0.2-0.2,0.3-0.4,0.3-0.6l0.1,0l3.6,2.4l-0.1,0.1c-0.4,0-0.7,0.1-1,0.3c-0.3,0.1-0.6,0.3-0.9,0.5c-0.3,0.2-0.6,0.5-0.8,0.7
		c-0.3,0.3-0.6,0.6-0.9,0.9l-2,2.1l1.9,1.8l1.6-1.7c0.4-0.5,0.8-0.9,1.2-1.4c0.3-0.4,0.5-0.8,0.5-1.2l0.1,0l2.9,2.8l0,0.1
		c-0.4,0-0.7,0.1-1,0.3c-0.3,0.1-0.6,0.3-0.9,0.5c-0.3,0.2-0.6,0.4-0.8,0.7c-0.3,0.3-0.6,0.6-0.9,0.9l-0.8,0.8l2,1.9l2.2-2.3
		c0.3-0.3,0.6-0.6,0.8-0.9c0.3-0.3,0.5-0.6,0.7-0.9c0.2-0.3,0.4-0.6,0.5-0.9c0.1-0.3,0.2-0.7,0.2-1l0.1-0.1l2.6,3.4l0,0.1
		c-0.2,0.1-0.4,0.2-0.6,0.4c-0.2,0.2-0.5,0.4-0.7,0.6c-0.3,0.3-0.5,0.5-0.8,0.8c-0.3,0.3-0.6,0.6-0.9,0.9L88.8,100.4L88.8,100.4z"/>
	<path class="st2" d="M106.3,81.8c0.1,0.3,0.1,0.6,0.2,0.8c0.1,0.2,0.2,0.4,0.2,0.5c0.1,0.2,0.2,0.4,0.4,0.4
		c0.1,0.1,0.2,0.1,0.3,0.2l0.1,0.1l-4.5,2.7l-0.1-0.1c0.1-0.6,0.1-1.3,0.1-2.1c-0.1-0.8-0.2-1.4-0.3-2.1l-1.5-8.7
		c-0.1-0.4-0.1-0.6-0.2-0.8c-0.1-0.2-0.1-0.3-0.1-0.3c-0.1-0.2-0.2-0.3-0.4-0.4c-0.1-0.1-0.2-0.1-0.3-0.2l-0.1-0.1l4-2.4l8.8,6.6
		c0.5,0.4,1.1,0.8,1.7,1.2c0.6,0.4,1.3,0.7,1.9,0.9l0.1,0.1l-4.5,2.7l-0.1-0.1c0-0.1,0-0.2,0-0.4c0-0.2-0.1-0.3-0.2-0.5
		c-0.1-0.1-0.2-0.3-0.4-0.5c-0.2-0.2-0.4-0.3-0.6-0.5l-0.6-0.4L106.3,81.8L106.3,81.8z M105.1,74.7l0.8,4.2l2.4-1.9L105.1,74.7z"/>
	<path class="st2" d="M139,57.3L139,57.3c0,0.1,0,0.2,0,0.3c0,0.1,0.1,0.3,0.2,0.5c0.1,0.2,0.2,0.3,0.3,0.5c0.1,0.2,0.3,0.3,0.4,0.4
		c0.1,0.1,0.2,0.3,0.3,0.3l4.4,4.9l-0.4-3.3c-0.1-1-0.3-1.8-0.5-2.5c-0.2-0.7-0.5-1.2-0.8-1.5l0-0.1l5.1-0.6l0,0.1
		c-0.3,0.4-0.4,0.9-0.4,1.7c0,0.8,0,1.6,0.2,2.6l0.7,5.4c0.1,1,0.3,1.8,0.5,2.5c0.2,0.7,0.5,1.2,0.8,1.5l0,0.1l-4.8,0.6l0-0.1
		c0,0,0-0.1,0-0.2c0-0.1-0.1-0.3-0.2-0.5c-0.1-0.2-0.2-0.3-0.3-0.5c-0.1-0.2-0.3-0.3-0.4-0.4c-0.1-0.1-0.2-0.3-0.3-0.3l-4.5-5
		l0.4,3.4c0.1,1,0.3,1.8,0.5,2.5c0.2,0.7,0.5,1.2,0.8,1.5l0,0.1l-5.1,0.6l0-0.1c0.3-0.4,0.4-0.9,0.4-1.7c0-0.8,0-1.6-0.2-2.6
		l-0.7-5.4c-0.1-1-0.3-1.8-0.5-2.5c-0.2-0.7-0.5-1.2-0.8-1.5l0-0.1L139,57.3z"/>
	<path class="st2" d="M171.3,72.2c0.4-0.2,0.7-0.7,1-1.4c0.3-0.7,0.5-1.5,0.8-2.4l1.7-6.4c-0.4-0.1-0.8-0.2-1.2-0.3
		c-0.4-0.1-0.7-0.1-1.1-0.2c-0.3,0-0.7,0-1,0c-0.3,0-0.7,0.1-1,0.3l-0.1,0l1.8-3.9l0.1,0c0.1,0.1,0.4,0.2,0.6,0.3
		c0.3,0.1,0.6,0.2,0.9,0.3c0.3,0.1,0.7,0.2,1.1,0.3c0.4,0.1,0.8,0.2,1.2,0.3l2.2,0.6c0.4,0.1,0.8,0.2,1.2,0.3
		c0.4,0.1,0.8,0.2,1.1,0.3s0.7,0.1,1,0.2c0.3,0,0.5,0,0.7,0l0.1,0.1l-0.4,4.3l-0.1,0c-0.2-0.3-0.5-0.6-0.7-0.8
		c-0.3-0.2-0.6-0.4-0.9-0.5c-0.3-0.1-0.7-0.3-1-0.4c-0.4-0.1-0.8-0.2-1.2-0.3l-1.7,6.4c-0.2,0.9-0.4,1.8-0.5,2.5
		c-0.1,0.7,0,1.3,0.2,1.7l0,0.1L171.3,72.2L171.3,72.2z"/>
	<path class="st2" d="M190.6,76.7c-0.2,0.2-0.4,0.4-0.6,0.6c-0.1,0.2-0.3,0.3-0.3,0.5c-0.1,0.2-0.2,0.4-0.2,0.5c0,0.2,0,0.3,0,0.4
		l0,0.1l-4.6-2.5l0-0.1c0.6-0.2,1.2-0.5,1.8-1c0.6-0.4,1.2-0.9,1.6-1.3l6.7-5.7c0.3-0.2,0.5-0.4,0.6-0.6c0.1-0.1,0.2-0.2,0.2-0.3
		c0.1-0.2,0.2-0.4,0.2-0.5c0-0.1,0-0.3,0-0.4l0-0.1l4.1,2.2l-1.3,10.9c-0.1,0.6-0.1,1.3-0.2,2.1c0,0.8,0,1.4,0.2,2l0,0.1l-4.6-2.5
		l0-0.1c0.1,0,0.2-0.1,0.3-0.2c0.1-0.1,0.2-0.2,0.3-0.5c0.1-0.2,0.2-0.3,0.2-0.6c0.1-0.2,0.1-0.5,0.1-0.8l0.1-0.7L190.6,76.7
		L190.6,76.7z M196.1,72l-3.3,2.8l2.8,1.1L196.1,72z"/>
	<path class="st2" d="M218.6,82L218.6,82c-0.5,0.1-1.1,0.4-1.6,0.8c-0.6,0.5-1.2,1.1-1.9,1.8l-4.5,4.9l1.8,1.7
		c0.3,0.3,0.6,0.6,0.9,0.8c0.3,0.3,0.6,0.5,0.9,0.7c0.3,0.2,0.6,0.4,0.9,0.5c0.3,0.1,0.7,0.2,1,0.2l0.1,0.1l-3.4,2.6l-0.1,0
		c-0.1-0.2-0.2-0.3-0.3-0.5c-0.2-0.2-0.3-0.4-0.6-0.7c-0.2-0.2-0.5-0.5-0.7-0.7c-0.3-0.3-0.5-0.5-0.8-0.8l-4.9-4.6l0.1-0.1
		c0.5,0,1-0.3,1.6-0.8c0.6-0.5,1.2-1.1,1.9-1.8l3.7-4c0.7-0.7,1.2-1.4,1.6-2c0.4-0.6,0.7-1.2,0.6-1.6l0.1-0.1L218.6,82z"/>
	<path class="st2" d="M226.5,104.8l-2.1-0.3c-0.7,0.5-1.3,0.9-1.7,1.3c-0.5,0.4-0.8,0.8-0.8,1.2l-0.1,0.1l-2.8-4.3l0.1-0.1
		c0.5,0.1,1,0,1.7-0.3c0.7-0.3,1.4-0.7,2.2-1.3l4.6-2.9c0.8-0.5,1.5-1,2.1-1.5c0.6-0.5,0.9-1,1-1.4l0.1-0.1l2.8,4.3l-0.1,0.1
		c-0.5-0.1-1,0-1.7,0.3s-1.4,0.7-2.2,1.3l-1.2,0.7l4,0.5c0.1,0,0.3,0,0.5,0c0.2,0,0.4,0,0.6,0c0.2,0,0.4,0,0.6,0
		c0.2,0,0.3-0.1,0.4-0.1c0.1-0.1,0.2-0.2,0.3-0.2c0-0.1,0.1-0.2,0.1-0.2l0.1-0.1l2.8,4.4l-0.1,0.1c-0.2-0.1-0.4-0.1-0.6-0.2
		c-0.2,0-0.5-0.1-0.7-0.1l-5.9-0.7l-1.9,4.1c-0.2,0.5-0.5,1-0.7,1.5c-0.2,0.5-0.4,0.9-0.5,1.4c-0.1,0.4-0.2,0.8-0.3,1.2
		c-0.1,0.4,0,0.7,0.1,0.9l-0.1,0.1c-0.4-0.1-0.8-0.3-1.1-0.6c-0.3-0.3-0.6-0.6-0.8-0.9c-0.3-0.4-0.5-0.8-0.6-1.2
		c-0.1-0.4-0.2-0.7-0.2-1.1c0-0.4,0-0.8,0.1-1.2c0.1-0.4,0.3-0.9,0.5-1.4L226.5,104.8z"/>
	<path class="st2" d="M221.5,136.9c-0.7,0-1.3-0.5-1.5-1.2c-4.6-17.9-16.5-33.6-32.6-42.8c-0.7-0.4-1-1.4-0.6-2.1
		c0.4-0.7,1.4-1,2.1-0.6c16.9,9.7,29.3,26,34.1,44.8c0.2,0.8-0.3,1.7-1.1,1.9C221.8,136.9,221.6,136.9,221.5,136.9"/>
	<path class="st2" d="M84.4,136.9c-0.1,0-0.3,0-0.4,0c-0.8-0.2-1.3-1.1-1.1-1.9c4.7-18.4,16.9-34.6,33.3-44.3
		c0.7-0.4,1.7-0.2,2.1,0.6c0.4,0.7,0.2,1.7-0.6,2.1c-15.7,9.3-27.4,24.8-31.9,42.4C85.7,136.4,85.1,136.9,84.4,136.9"/>
	<path class="st2" d="M99.1,200.4c-0.4,0-0.9-0.2-1.2-0.5c-7.1-8.3-12.3-18.3-15-28.8c-0.2-0.8,0.3-1.7,1.1-1.9
		c0.8-0.2,1.7,0.3,1.9,1.1c2.6,10.1,7.6,19.6,14.4,27.5c0.6,0.7,0.5,1.6-0.2,2.2C99.8,200.3,99.5,200.4,99.1,200.4"/>
	<path class="st2" d="M212.9,192.1c-0.3,0-0.6-0.1-0.8-0.2c-0.7-0.5-1-1.4-0.5-2.2c3.8-6,6.6-12.5,8.4-19.4c0.2-0.8,1.1-1.3,1.9-1.1
		c0.8,0.2,1.3,1.1,1.1,1.9c-1.9,7.2-4.8,14-8.7,20.2C214,191.8,213.4,192.1,212.9,192.1"/>
	<path class="st2" d="M150.4,123.4c1.2,0.9,1.7-1.7,4.4-3.5c6.1-3.9,12.3,0.9,12.9,0c0.3-0.5-0.3-1.6-2.6-2.9
		c-2.6-1.5-8.9-2.2-10.8-1.6c-1.9,0.6-1.6,2-2.1,3.4c-0.5,1.4-1.9,2.2-2.6,2.5c-0.6,0.3-0.6,0.7-0.2,1.2
		C149.8,123,150.4,123.4,150.4,123.4"/>
	<path class="st2" d="M161.3,121c-2.5-0.6-4.4-0.1-6.1,1.1c-1.4,1-1.2,1.1-2.8,2.3c0,0-0.3,0.2-0.2,0.5c0,0,0.1,0.5,1.1,0.1
		c1-0.3,2.1-1.4,3.6-1.9c-0.2,0.3-0.3,0.7-0.3,1c0,1.2,1,2.2,2.2,2.2c1.2,0,2.2-1,2.2-2.2c0-0.5-0.1-0.9-0.4-1.2
		c2,0.4,3.4,1.4,3.9,1.7c0.6,0.4,1.3,0.3,1.4,0C166.2,124.2,163.7,121.6,161.3,121"/>
	<path class="st2" d="M149.1,154.3c-0.3,0-0.6,0-1,0c-1.4-0.2-1.8-0.9-3.1-0.8c-1.3,0.1-1.5,0.6-2.5,0.9c-0.6,0.2-1.2,0.1-1.6,0
		c-0.2,0-0.3,0.1-0.3,0.3c0.4,3.5,3.7,3.5,4.2,3.5c0,0,0.1,0,0.1,0c0.8-1.2,2.4-1.1,3.6-1.9c0.8-0.5,1-1.2,1-1.6
		C149.4,154.4,149.3,154.3,149.1,154.3"/>
	<path class="st2" d="M132.5,165c0.3,0.4,0.6,0.9,0.8,1.2l2.1,3.1c0.6,0.8,1.2,1.6,2,2.2c2.3,1.8,4.4,1.9,6.7,1.7
		c-1.1,1.4-3.7,3.7-4.3,4.7l11.9-5.3c9.7-4.8,23.9-12.5,25.8-27.1c0.5,0.1,1.2,0.3,1.3,0.3c4.6,0.6,5.5-3.4,5.2-8.9
		c-0.3-5.4,2-7.9,1.9-10.5c-0.1-2.6-1.8-3.1-1.8-3.1c1.4-10.8-1.7-19.9-1.7-19.9c-0.4-1.4,1.5-7.2-2.4-12.1
		c-4.1-5.2-4.4-7.5-7.6-9.4c-0.9-0.5-2.2-1.1-5-1.4c-3.2-0.3-4-2-8-2.3c-3.2-0.3-4.9,1-7.7,0.3c-2.8-0.7-6-0.5-8.4,0.4
		c-3.2,1.1-2.8,1.4-7,1.8c-4.5,0.4-7.1,2.6-9.2,5.8c-2.5,3.7-3.7,5.3-4.1,8.2c-0.5,3.4,1.6,5.8,1.6,5.8c-1.3,1.4-2.6,3.3-3.2,5.6
		c-2.1,7.8,1,13.5,0.4,18.6c0,0-2.1-0.4-2.1,1.9c0,1.5,2.5,4.2,2.6,8C122.5,151.3,128.1,158.5,132.5,165 M178.9,128.5
		c1.1-1.8,3-2.3,3.6-1.7c0.6,0.5,0.3,1.4-0.4,1.8c-0.4,0.3-2.1,1.4-2.2,3.2c-0.1,1.8,1,2.7,0.2,4.3c-0.7,1.5-1.2,2.1-0.8,2.7
		c0.3,0.4,1,0.5,1.6-0.4c0.1-0.1,0.1-0.2,0.1-0.2c0,0,0.1-0.1,0.1-0.1c0.1,0,0.1,0.2,0.1,0.2c0.4,3.4-0.4,4.5-1.3,4.8
		c-0.3,0.1-0.6,0.1-1,0.1c-0.2,0-0.9-0.2-1.2-0.3l0-7.6C177.9,135.2,177.8,130.3,178.9,128.5 M158.1,157.4c-0.4,1.6-4,4.9-5.8,5.8
		c-2.7,1.3-6.2,1.1-9,1c-2.1-0.1-3-1-3-1c-4.8-4.9-5.5-10.8-5.5-10.8s-0.2-1.5,1-1.9c1.5-0.4,3.9,0.8,3.9,0.8
		c4.2-2.5,8.5-0.9,12.9-1.1c2.8-0.1,3.9-1.1,3.9-1.1c0.1-0.1,0.3-0.2,0.4-0.1c0.2,0.1,0.2,0.2,0.2,0.7c0,0.5,0.1,1.7,0.1,1.7
		C157.7,155.4,158.4,155.9,158.1,157.4 M141.8,148c0.1,0,0.8-0.3,1-0.5c0.8-0.5,1.2-1,1.7-1.8c0.2-0.3,0.6-0.3,0.8,0
		c0.3,0.4,1.8,2,4.4,2.2c2.9,0.2,4.4-0.5,5.1-0.8c0.7-0.3,0.9,0.1,0.8,0.5c-0.1,0.4-0.6,1.1-3.3,1.2c-3.4,0.1-5-0.7-7.4-0.6
		c-1.6,0.1-2.8,0.6-3.1,0.6C141.5,148.7,141.4,148.2,141.8,148 M127.8,113.7c0.7-1.5,1.1-3.1,1-4.7c0-1.3-0.3-2.5-0.2-3.6
		c0.1-5.5,3.6-9.2,8.8-9.2c3.2-0.2,9.4,0.2,22.1-0.3c7.2-0.3,12.8,1.5,13.1,8.8c0.1,1.8-0.7,4.1-1.3,5.5c-0.4,1.1-0.4,1.6,0.2,2.4
		c1.5,2,4.1,5.9,3.9,12c-0.2,8.1-1.9,15.6-8,18.7c0,0-2.2,1-3,2.3c-0.8,1.3-0.8,2.8-1,4.3c-0.2,2-0.8,2.7-1.3,2.4
		c-0.6-0.3-1-1.6-1.3-4.8c-0.2-2.4-0.8-4-2.8-4.5c-0.4-0.1-0.9-0.1-1.1-0.1c-0.5,0-1.5,0-2.9-0.2c-2.1-0.3-2.9-1.5-5.1-1.5
		c-0.7,0-1.5,0.3-2.1,0.7c-0.4,0.2-0.7,0.5-0.9,0.9c-0.1,0.1-0.3,0.4-0.7,0.4c-0.3,0-0.5-0.1-0.7-0.3c-0.6-0.6-0.9-0.5-1.1-0.7
		c-0.1-0.1-0.1-0.4,0.3-0.3c0.1,0,0.2,0,0.3,0.1c1.3,0.2,2.1-0.2,2.9-0.7c0.8-0.6,1.2-1.1,1.9-1.2c0.9-0.1,1.1,0.5,2.2,0.6
		c1.1,0.1,1.8-0.7,1.3-1.2c0,0-1.2-1.4-3.1-1.4c0,0-1,0-2,0.8c-1,0.8-1.5,1.1-2.5,1.2c-1.1,0.1-2.2-0.6-2.8-1.1
		c-0.7-0.5-1.4-0.4-2,0c-0.6,0.4-1.3,0.8-2.3,0.7c-0.3,0-0.7-0.1-0.9-0.3c-0.1-0.1-0.2-0.1-0.3-0.1c-0.2,0-0.2,0.3-0.2,0.4
		c-0.1,0.5,0.2,1.7,1.8,2.5c0,0,0.3,0.2,0.1,0.4c-0.2,0.3-0.6,0.3-3,1.2c-2.1,0.7-3.2,1.8-3.7,3.5c-0.1,0.2-0.4,0.3-0.5,0.1
		c-2.7-4.2-4.2-9.2-4.2-14.5c0-0.9,0-1.7,0.1-2.6c0,0,0.1-5.9,6.4-7.1c0,0,0,0,0,0c-0.3,0.5-0.5,1.1-0.4,1.7
		c0.2,0.9,0.9,1.6,1.7,1.7c1.4,0.3,2.7-0.8,2.7-2.2c0-0.3-0.1-0.7-0.2-1c2.2,0.8,3.7,2.3,3.9,2.9c0.3,0.8-0.3,2.2-0.6,2.7
		c-0.3,0.6,0.2,0.5,0.2,0.5c0.3-0.1,1.1-0.6,1.5-0.8c0.1-0.1,0.2-0.2,0.3-0.3c0.2-0.7,0.8-3,1.2-4.7c0.5-2-0.4-2.3-1.5-2.8
		c-1.1-0.5-2-0.8-3.6-3c-0.8-1.1-2.4-1.6-4.2-1.5c-1.2,0-2.4,0-3.7,0.4c-1.9,0.6-3.1,1.7-3.7,2.5c-0.2,0.2-0.5,0.3-0.5-0.2
		C126.3,116.9,127.3,114.8,127.8,113.7 M129.2,119.5c2.1-1.3,6.9-0.5,7.6,0.1c0.8,0.6,0.9,1.3,0.6,1.5c-0.3,0.2-1.3-0.4-2.5-0.4
		c-1.4,0-2.5,0-4.9,1.4c0,0-1.5,1-2.2,0.1C127.9,122.2,127.2,120.8,129.2,119.5"/>
	<path class="st2" d="M138.5,178.6c-1.7-3.8-2.6-8.1-2.6-8.1s-4,2.2-5.5,6.1c-2.1,5.5,2.2,8.5,2.2,8.5
		C133.6,182.6,135.4,180.3,138.5,178.6"/>
	<path class="st2" d="M125.8,190.5l4.3-3.7c-2.6-2.8-2.8-5.8-2.8-5.8C125.6,185.3,125.8,190.5,125.8,190.5"/>
	<path class="st2" d="M115.3,196.4c1.7-0.6,3.5-1.2,5.4-1.7c1.1-0.9,3.4-2.9,3.8-3.2c-0.1-2.2,0-5.1,0.6-8.8
		c-8.1,3.4-17.3,13.2-20.1,19.3c0,0,0,0,0,0c0.9-0.7,1.9-1.4,2.9-2C110.3,198.6,112.7,197.4,115.3,196.4"/>
	<path class="st2" d="M190.9,198.8c4.4,0,7.7-0.9,10-2.2c6.1-3.6,7.3-11.4-3.3-20.2c-2.7-2.2-5.1-4-7.7-6.1
		c-1.3-1.1-1.9-2.8-1.9-2.8c-2.1-4.5-3.8-8.8-5.8-10.3c-1.6-1.2-1.6-0.3-1.6,0c0.4,2.8-6.7,5.5-16.9,16.1c0,0-3.4,3.4-8,9.4
		c-1,1.4-3.1,4.2-5.3,7.9c-5.6-8.4-8.7-9.9-9.5-10.4c-1,0.3-5.5,2-7.8,12c0,0-0.2,0.7,0.4,0.6c0,0,10.1-5.7,11.5-6.3
		c0.5,0.3,2.8,2.3,5,4.7c-0.5,0.8-1,1.7-1.5,2.7c4.8,0.5,9.5,1.3,14,2C171.3,197.3,180.3,198.7,190.9,198.8"/>
	<path class="st2" d="M197.8,218.4c-2.1,0-4.3,1.6-5.4,4.3c-1.1,2.7-0.2,4.3,1.9,4.3c2.1,0,4.3-1.6,5.4-4.3
		C200.8,220,199.8,218.4,197.8,218.4"/>
	<path class="st2" d="M191.3,246.8c-1.1,0-1.9-0.7-1.9-1.6c0-0.7,0.2-1.9,0.9-3.4c1.4-3.3,4.1-8.7,5.5-11.6h-6.3
		c-1.2,2.2-4.3,7.8-6,12.6c-0.2,0.2-0.3,0.5-0.3,0.5c-1.2,1.9-5.6,5.7-9.4,5.7c-2.5,0-2.8-1.9-2.8-3.6c11.8-8.4,18.8-21.1,18.8-27.5
		c0-2.8-1-4.4-3.3-4.4c-5.6,0-19.2,18.1-20.6,30.2c-1.2,1.9-5.7,5.3-9.2,5.3c-2.5,0-2.8-1.9-2.8-3.6c11.8-8.4,18.8-21.1,18.8-27.5
		c0-2.8-1-4.4-3.3-4.4c-5.7,0-19.7,18.8-20.6,30.9c-1.8,1.4-3.7,2.4-5,2.4c-1.1,0-1.9-0.7-1.9-1.6c0-0.7,0.2-1.9,0.9-3.4
		c1.4-3.3,4.1-8.7,5.5-11.6H142c-1.7,3.1-7.2,13-7.2,17.8c0,3.4,1.9,4.8,4.2,4.8c3.8,0,8.1-4,9.8-5.8c0.6,4.1,3.6,5.6,6.9,5.6
		c3.7,0,7.7-2.9,10.2-5.1c0,0,0,0,0.1-0.1c0.7,3.7,3.6,5.1,6.8,5.1c3.5,0,7.1-2.4,9.6-4.6c0,3.4,1.9,4.8,4.2,4.8
		c4.8,0,10.5-6.6,10.5-6.6l-0.4-2.2C194.7,245.7,192.7,246.8,191.3,246.8 M178.9,227.3c4.2-6.4,7.5-9.7,8-9.7c0.1,0,0.2,0.2,0.2,0.3
		c0,2.7-1.5,6.5-4.4,11.2c-2.5,4-8.4,10.4-11.2,12.4C172.6,238.4,175.2,232.9,178.9,227.3 M161.9,227.3c4.2-6.4,7.5-9.7,8-9.7
		c0.1,0,0.2,0.2,0.2,0.3c0,2.7-1.5,6.5-4.4,11.2c-2.5,4-8.4,10.4-11.2,12.4C155.6,238.4,158.2,232.9,161.9,227.3"/>
	<path class="st2" d="M152.3,222.9c1.1-2.7,0.2-4.3-1.9-4.3c-2.1,0-4.3,1.6-5.4,4.3c-1.1,2.7-0.2,4.3,1.9,4.3
		C149,227.2,151.2,225.6,152.3,222.9"/>
	<path class="st2" d="M206.2,194.7c0,0.4-2.7,7.8-15.3,7.8c-17.5,0-30.5-3.9-45.5-5.2c-3.3-0.3-6.7-0.5-10.2-0.5
		c-2.2,0-4.2,0.1-6.2,0.3c-1.1,0.1-2.1,0.3-3.2,0.4c-3.3,0.5-6.4,1.4-9.2,2.4c-2.4,0.9-4.7,2-6.7,3.2C102,208,97.7,215,97.7,221.7
		c0,5.8,3.1,10.3,7.2,10.3c2.5,0,3.4-1.4,3.4-1.4c-2.3-0.7-3.1-3.8-3.1-5.8c0-7.4,5.9-19.1,19-21.8c1-0.2,2.1-0.4,3.2-0.5
		c0.8-0.1,1.7-0.1,2.5-0.1c4.5,0,9.4,0.5,14.5,1.3c-7.2,2.3-11.8,9.3-16.6,17.8c-7.4,0-10.5,5.1-10.6,7.2c0,0.4,0.1,0.8,0.2,1
		c1.1-0.8,2.6-2,6.9-1.8c-0.1,0.1-0.1,0.2-0.2,0.4c-4.4,8-10.4,18-15.6,23c-2.4,2.3-4.8,2.9-8,2.9c0.6,0.9,3.6,3.3,7.4,3.3
		c12.6,0,17.9-15.6,24.3-29.4c5-0.5,9.2-4.7,9.4-7.8c-0.4,0.2-2.9,1.8-6.5,1.6c0,0,0,0-0.1,0c3.2-6.8,7.4-14.1,13.7-16.9
		c0.5-0.2,1.2-0.3,1.8-0.2c14.4,2.6,24.9,6.4,37.1,6.4c10.1,0,17.6-2.3,19.8-8c0.4-1.1,0.7-2.4,0.7-3.8
		C208.2,197.1,207,195.5,206.2,194.7"/>
	<path class="st2" d="M152.9,263.4c-10.4,0-20.8-1.5-30.7-4.3c-0.8-0.2-1.3-1.1-1.1-1.9c0.2-0.8,1.1-1.3,1.9-1.1
		c9.7,2.8,19.7,4.2,29.8,4.2c25.6,0,50.4-9.2,69.8-25.8c19.2-16.5,32-39.2,36.1-64c0.1-0.9,0.9-1.4,1.8-1.3c0.9,0.1,1.4,0.9,1.3,1.8
		c-4.2,25.5-17.4,48.9-37.1,65.8C204.8,253.9,179.3,263.4,152.9,263.4"/>
	<path class="st2" d="M260.4,136.9c-0.8,0-1.4-0.5-1.5-1.3c-4-24.8-16.8-47.6-36.1-64.1c-19.4-16.7-44.2-25.8-69.8-25.8
		c-25.6,0-50.4,9.2-69.8,25.8c-19.2,16.5-32,39.2-36.1,64.1c-0.1,0.9-0.9,1.4-1.8,1.3c-0.9-0.1-1.4-0.9-1.3-1.8
		c4.2-25.6,17.3-49,37.1-65.9c20-17.1,45.5-26.6,71.9-26.6c26.4,0,51.9,9.4,71.9,26.6c19.8,17,32.9,40.4,37.1,66
		c0.1,0.9-0.4,1.7-1.3,1.8C260.5,136.9,260.5,136.9,260.4,136.9"/>
	<path class="st2" d="M100.7,250c-0.3,0-0.5-0.1-0.7-0.2c-14.5-7.9-27.2-19.2-36.8-32.7C53.3,203.5,46.7,187.5,44,171
		c-0.1-0.9,0.4-1.7,1.3-1.8c0.8-0.1,1.7,0.4,1.8,1.3c2.6,16.1,9.1,31.6,18.6,44.9c9.4,13.1,21.7,24,35.8,31.7c0.8,0.4,1,1.4,0.6,2.1
		C101.8,249.7,101.3,250,100.7,250"/>
	<path class="st2" d="M42.6,158.4c0.3-0.3,0.4-0.7,0.5-1.3c0.1-0.6,0.1-1.3,0.1-2v-4.3c0-0.8,0-1.4-0.1-2c-0.1-0.6-0.2-1-0.5-1.3
		v-0.1h5.2h1c0.3,0,0.6,0,0.9,0c0.3,0,0.5,0,0.8-0.1c0.2,0,0.4-0.1,0.5-0.1l0.1,0l0.6,3.3l-0.1,0c-0.2-0.2-0.5-0.3-0.7-0.4
		c-0.2-0.1-0.5-0.2-0.8-0.2c-0.3,0-0.6-0.1-0.9-0.1c-0.3,0-0.6,0-1,0H46v2h1.8c0.5,0,1,0,1.4-0.1c0.4-0.1,0.7-0.2,1-0.4l0.1,0v3.2
		l-0.1,0c-0.2-0.2-0.5-0.4-0.7-0.5c-0.2-0.1-0.5-0.2-0.8-0.2c-0.3,0-0.5-0.1-0.8-0.1c-0.3,0-0.6,0-1,0H46v2.1h2.5c0.3,0,0.7,0,1,0
		c0.3,0,0.6,0,0.9-0.1c0.3,0,0.5-0.1,0.8-0.2c0.2-0.1,0.5-0.3,0.7-0.4l0.1,0l-0.6,3.3l-0.1,0c-0.1-0.1-0.3-0.1-0.5-0.1
		c-0.2,0-0.5-0.1-0.8-0.1c-0.3,0-0.6,0-0.9,0h-1L42.6,158.4L42.6,158.4z"/>
	<path class="st2" d="M59.3,154.3c0.2,0.3,0.5,0.5,0.8,0.7c0.3,0.2,0.7,0.5,1.2,0.6c0.4,0.2,0.9,0.3,1.4,0.4c0.5,0.1,1,0.2,1.5,0.2
		c0.4,0,0.7-0.1,0.9-0.2c0.2-0.1,0.4-0.3,0.4-0.6v-0.1c0-0.2-0.1-0.4-0.2-0.5c-0.2-0.1-0.4-0.3-0.7-0.4c-0.3-0.1-0.6-0.2-1-0.3
		c-0.4-0.1-0.8-0.2-1.2-0.3c-0.4-0.1-0.8-0.3-1.2-0.4c-0.4-0.2-0.7-0.4-0.9-0.6c-0.3-0.3-0.5-0.6-0.6-0.9c-0.2-0.4-0.2-0.8-0.2-1.2
		v-0.2c0-0.7,0.1-1.2,0.4-1.7c0.3-0.4,0.6-0.7,1.1-1c0.4-0.2,0.9-0.4,1.4-0.4c0.5-0.1,1-0.1,1.5-0.1c0.3,0,0.5,0,0.8,0
		c0.3,0,0.5,0.1,0.7,0.1c0.2,0,0.5,0.1,0.7,0.1c0.2,0,0.4,0,0.5,0c0.2,0,0.3,0,0.5,0c0.2,0,0.3-0.1,0.4-0.1l0.1,0
		c0.1,0.6,0.1,1.2,0.2,1.8c0.1,0.6,0.1,1.2,0.2,1.8l-0.1,0c-0.2-0.2-0.4-0.4-0.7-0.6s-0.6-0.3-1-0.5c-0.4-0.1-0.7-0.2-1.1-0.3
		c-0.4-0.1-0.7-0.1-1.1-0.1c-0.4,0-0.8,0.1-1.1,0.2c-0.3,0.1-0.4,0.3-0.4,0.5c0,0.2,0.1,0.3,0.2,0.4c0.1,0.1,0.2,0.2,0.4,0.3
		c0.2,0.1,0.4,0.2,0.6,0.2c0.2,0.1,0.5,0.1,0.7,0.2c0.5,0.1,0.9,0.3,1.4,0.4c0.5,0.2,0.9,0.4,1.3,0.6c0.4,0.3,0.7,0.6,1,1
		c0.3,0.4,0.4,1,0.4,1.6v0.2c0,0.6-0.1,1.2-0.4,1.6c-0.3,0.4-0.6,0.8-1,1c-0.4,0.3-0.9,0.4-1.4,0.5c-0.5,0.1-1,0.1-1.6,0.1
		c-0.5,0-0.9,0-1.3-0.1c-0.4-0.1-0.7-0.1-1-0.2c-0.3-0.1-0.5-0.1-0.7-0.2c-0.2-0.1-0.4-0.1-0.6-0.1c-0.1,0-0.3,0-0.4,0.1
		c-0.1,0-0.2,0.1-0.3,0.2l-0.1,0L59.3,154.3L59.3,154.3z"/>
	<path class="st2" d="M78,158.4c0.3-0.3,0.4-0.7,0.5-1.3c0.1-0.6,0.1-1.3,0.1-2v-5.2c-0.3,0-0.7,0-0.9,0c-0.3,0-0.6,0-0.8,0.1
		c-0.3,0-0.5,0.1-0.8,0.2c-0.2,0.1-0.5,0.2-0.7,0.4l-0.1,0l0.6-3.3l0.1,0c0.1,0.1,0.3,0.1,0.5,0.1c0.2,0,0.5,0.1,0.8,0.1
		c0.3,0,0.6,0,0.9,0h1h1.8h1c0.3,0,0.6,0,0.9,0c0.3,0,0.5,0,0.8-0.1c0.2,0,0.4-0.1,0.5-0.1l0.1,0l0.6,3.3l-0.1,0
		c-0.2-0.2-0.5-0.3-0.7-0.4c-0.2-0.1-0.5-0.2-0.8-0.2c-0.3,0-0.6-0.1-0.9-0.1c-0.3,0-0.6,0-0.9,0v5.2c0,0.8,0,1.4,0.1,2
		c0.1,0.6,0.2,1,0.5,1.3v0.1L78,158.4L78,158.4z"/>
	<path class="st2" d="M96.7,147.5c0.9,0,1.6,0.1,2.3,0.3c0.7,0.2,1.3,0.6,1.8,1c0.5,0.5,0.9,1,1.2,1.7c0.3,0.7,0.4,1.5,0.4,2.4
		c0,0.9-0.1,1.7-0.4,2.4c-0.3,0.7-0.7,1.3-1.2,1.7c-0.5,0.5-1.1,0.8-1.8,1c-0.7,0.2-1.5,0.3-2.3,0.3h-4.8v-0.1
		c0.3-0.3,0.4-0.7,0.5-1.3c0.1-0.6,0.1-1.3,0.1-2v-4.3c0-0.8,0-1.4-0.1-2c-0.1-0.6-0.2-1-0.5-1.3v-0.1H96.7z M96.4,156.2
		c1,0,1.7-0.3,2.3-0.8s0.8-1.3,0.8-2.4c0-1-0.3-1.8-0.8-2.4s-1.3-0.8-2.3-0.8c-0.2,0-0.3,0-0.5,0c-0.2,0-0.4,0-0.5,0v6.2
		c0.1,0,0.3,0,0.5,0C96.1,156.2,96.3,156.2,96.4,156.2"/>
	<path class="st2" d="M218.4,155.2c0,0.8,0,1.4,0.1,2c0.1,0.6,0.2,1,0.5,1.3v0.1h-4v-0.1c0.3-0.3,0.4-0.7,0.5-1.3
		c0.1-0.6,0.1-1.3,0.1-2v-4.5h-1.2l0-0.6c0.6-0.2,1.1-0.6,1.5-1.1c0.4-0.5,0.7-1,0.8-1.5h1.7V155.2z"/>
	<path class="st2" d="M230.3,158.7c-0.6,0-1.1-0.1-1.7-0.1c-0.6-0.1-1-0.2-1.5-0.4l-0.7-3.4l0.1,0c0.2,0.3,0.4,0.5,0.7,0.7
		c0.3,0.2,0.5,0.4,0.8,0.5c0.3,0.1,0.6,0.2,0.9,0.3c0.3,0.1,0.6,0.1,0.8,0.1c0.4,0,0.8-0.1,1.1-0.2c0.3-0.1,0.5-0.3,0.7-0.5
		c0.2-0.2,0.3-0.4,0.4-0.7c0.1-0.3,0.2-0.6,0.2-0.9c-0.6,0.4-1.2,0.6-1.9,0.7c-0.7,0.1-1.4,0-2-0.3c-0.6-0.2-1.1-0.6-1.6-1.2
		c-0.4-0.5-0.6-1.2-0.6-2.1c0-0.5,0.1-1,0.3-1.4s0.5-0.9,0.9-1.2c0.4-0.4,0.9-0.6,1.4-0.9c0.5-0.2,1.1-0.3,1.8-0.3
		c0.6,0,1.3,0.1,1.8,0.3c0.6,0.2,1.1,0.5,1.5,1c0.4,0.4,0.8,1,1,1.6c0.2,0.6,0.4,1.4,0.4,2.3v0.1c0,0.9-0.1,1.8-0.4,2.5
		c-0.2,0.7-0.6,1.4-1,1.9c-0.4,0.5-1,0.9-1.6,1.2C231.7,158.6,231.1,158.7,230.3,158.7 M229.1,151.2c0,0.3,0,0.5,0.1,0.7
		c0.1,0.2,0.2,0.3,0.4,0.5c0.1,0.1,0.3,0.2,0.5,0.3c0.2,0.1,0.4,0.1,0.6,0.1c0.2,0,0.4,0,0.6-0.1c0.2-0.1,0.4-0.2,0.5-0.3
		c0.1-0.1,0.3-0.3,0.4-0.5c0.1-0.2,0.1-0.4,0.1-0.7c0-0.2,0-0.5-0.1-0.6c-0.1-0.2-0.2-0.3-0.4-0.5c-0.1-0.1-0.3-0.2-0.5-0.3
		c-0.2-0.1-0.4-0.1-0.6-0.1c-0.2,0-0.4,0-0.6,0.1c-0.2,0.1-0.4,0.1-0.5,0.3c-0.1,0.1-0.3,0.3-0.4,0.5
		C229.2,150.7,229.1,151,229.1,151.2"/>
	<path class="st2" d="M246.7,158.7c-0.6,0-1.1-0.1-1.7-0.1c-0.6-0.1-1-0.2-1.5-0.4l-0.7-3.4l0.1,0c0.2,0.3,0.4,0.5,0.7,0.7
		c0.3,0.2,0.5,0.4,0.8,0.5c0.3,0.1,0.6,0.2,0.9,0.3c0.3,0.1,0.6,0.1,0.8,0.1c0.4,0,0.8-0.1,1.1-0.2c0.3-0.1,0.5-0.3,0.7-0.5
		c0.2-0.2,0.3-0.4,0.4-0.7c0.1-0.3,0.2-0.6,0.2-0.9c-0.6,0.4-1.2,0.6-1.9,0.7c-0.7,0.1-1.4,0-2-0.3c-0.6-0.2-1.1-0.6-1.6-1.2
		c-0.4-0.5-0.6-1.2-0.6-2.1c0-0.5,0.1-1,0.3-1.4c0.2-0.5,0.5-0.9,0.9-1.2c0.4-0.4,0.9-0.6,1.4-0.9c0.5-0.2,1.1-0.3,1.8-0.3
		c0.6,0,1.3,0.1,1.8,0.3c0.6,0.2,1.1,0.5,1.5,1s0.8,1,1,1.6c0.2,0.6,0.4,1.4,0.4,2.3v0.1c0,0.9-0.1,1.8-0.4,2.5
		c-0.2,0.7-0.6,1.4-1,1.9c-0.4,0.5-1,0.9-1.6,1.2C248.1,158.6,247.5,158.7,246.7,158.7 M245.5,151.2c0,0.3,0,0.5,0.1,0.7
		c0.1,0.2,0.2,0.3,0.4,0.5c0.1,0.1,0.3,0.2,0.5,0.3c0.2,0.1,0.4,0.1,0.6,0.1c0.2,0,0.4,0,0.6-0.1c0.2-0.1,0.4-0.2,0.5-0.3
		c0.1-0.1,0.3-0.3,0.4-0.5c0.1-0.2,0.1-0.4,0.1-0.7c0-0.2,0-0.5-0.1-0.6c-0.1-0.2-0.2-0.3-0.4-0.5c-0.1-0.1-0.3-0.2-0.5-0.3
		c-0.2-0.1-0.4-0.1-0.6-0.1c-0.2,0-0.4,0-0.6,0.1c-0.2,0.1-0.4,0.1-0.5,0.3c-0.1,0.1-0.3,0.3-0.4,0.5
		C245.6,150.7,245.5,151,245.5,151.2"/>
	<path class="st2" d="M262.7,155.2c0,0.8,0,1.4,0.1,2c0.1,0.6,0.2,1,0.5,1.3v0.1h-4v-0.1c0.3-0.3,0.4-0.7,0.5-1.3
		c0.1-0.6,0.1-1.3,0.1-2v-4.5h-1.2l0-0.6c0.6-0.2,1.1-0.6,1.5-1.1c0.4-0.5,0.7-1,0.8-1.5h1.7V155.2z"/>
</g>
</svg>
